# xmcd CD Database Entry
#
# Track frame offsets:
# 150
# 17963
# 37790
# 54341
# 72865
# 93080
# 111445
# 128747
# 140009
# 154224
# 169444
# 188169
# 209356
#
# Disc length: 3031 seconds
#
# Revision: 4
# Processed by: cddbd v1.5.1PL0 Copyright (c) Steve Scherf et al.
# Submitted via: tcd 2.0b
#
DISCID=b50bd50d
DTITLE=Kittitian - Root's Reggae
DYEAR=1900
DGENRE=
TTITLE0=Love, Love, Love
TTITLE1=No Woman No Cry
TTITLE2=A-long A-long A-long
TTITLE3=Stir It Up
TTITLE4=Oh Baby, Baby, It's a Wild World
TTITLE5=Can't Help Falling in Love
TTITLE6=What a Wonderful World
TTITLE7=The Way You Do the Things You Do
TTITLE8=One Love
TTITLE9=Red Red Wine
TTITLE10=Waiting in Vain
TTITLE11=A Major Jam
TTITLE12=Knocking on Heaven's Door
EXTD=
EXTT0=
EXTT1=
EXTT2=
EXTT3=
EXTT4=
EXTT5=
EXTT6=
EXTT7=
EXTT8=
EXTT9=
EXTT10=
EXTT11=
EXTT12=
PLAYORDER=
